<?xml version="1.0" encoding="iso-8859-1"?>
<!-- Generator: Adobe Illustrator 19.0.0, SVG Export Plug-In . SVG Version: 6.00 Build 0)  -->
<svg xmlns="http://www.w3.org/2000/svg" xmlns:xlink="http://www.w3.org/1999/xlink" version="1.1" id="Layer_1" x="0px" y="0px" viewBox="0 0 512.001 512.001" style="enable-background:new 0 0 512.001 512.001;" xml:space="preserve" width="512" height="512">
<path d="M481.33,412.242C501.437,384.866,512,353.054,512,319.525c0-53.672-27.834-103.502-74.792-134.598  c-4.331-47.819-26.659-92.166-63.991-126.335C331.936,20.809,277.167,0,219,0S106.065,20.809,64.783,58.593  C23.007,96.828,0,147.806,0,202.136c0,41.788,13.471,81.406,39.079,115.304L1.458,410.504c-3.051,7.547-1.224,16.19,4.621,21.855  c3.81,3.693,8.828,5.642,13.926,5.642c2.723-0.001,5.469-0.557,8.063-1.7l107.301-47.3c13.471,5.149,27.349,9.001,41.547,11.551  c14.543,23.918,35.287,44.173,60.505,58.917c28.154,16.459,60.661,25.254,94.098,25.507c0.491,0.036,0.981,0.075,1.482,0.075  c23.117,0,45.515-3.993,66.703-11.88l84.229,37.13c2.594,1.144,5.34,1.7,8.063,1.7c5.097,0,10.117-1.948,13.926-5.642  c5.845-5.666,7.672-14.309,4.621-21.855L481.33,412.242z M439.889,416.457l15.109,37.375l-46.837-20.646  c-5.063-2.232-10.825-2.267-15.916-0.095c-18.357,7.832-38.014,11.846-58.435,11.95C333.54,445.03,333.274,445,333,445  c-39.414,0-76.65-15.402-102.664-41.023c32.983-1.58,65.313-10.003,94.137-24.641c9.849-5.002,13.777-17.04,8.775-26.889  c-5.001-9.848-17.04-13.775-26.889-8.775c-26.534,13.477-56.743,20.6-87.359,20.6c-26.604,0-52.217-5.172-76.124-15.373  c-5.089-2.172-10.853-2.139-15.916,0.095l-69.958,30.839l23.554-58.266c2.793-6.909,1.514-14.799-3.321-20.47  C52.876,272.519,40,238.299,40,202.136C40,112.733,120.299,40,219,40s179,72.733,179,162.136c0,28.876-8.489,57.224-24.552,81.979  c-6.012,9.266-3.374,21.651,5.893,27.663c9.264,6.014,21.65,3.374,27.664-5.892c14.254-21.969,23.777-46.225,28.181-71.417  C458.615,257.413,472,287.634,472,319.525c0,27.926-9.955,54.366-28.79,76.461C438.375,401.658,437.096,409.548,439.889,416.457z   M238,305c0,11.046-8.954,20-20,20l0,0c-11.046,0-20-8.954-20-20s8.954-20,20-20l0,0C229.046,285,238,293.954,238,305z   M293.983,155.152c0.012,0.278,0.018,0.556,0.018,0.837c0.007,30.107-17.882,57.201-45.573,69.022  c-5.73,2.447-9.434,8.218-9.434,14.701V241c0,11.046-8.954,20-20,20s-20-8.954-20-20v-1.287c0-22.531,13.239-42.741,33.729-51.488  c12.753-5.445,21.053-17.826,21.273-31.653c-0.005-0.192-0.008-0.385-0.008-0.578c0-19.295-15.698-34.993-34.994-34.993  C199.699,121,184,136.698,184,155.993c0,11.046-8.954,20-20,20s-20-8.954-20-20C144,114.642,177.642,81,218.994,81  C260.065,81,293.532,114.187,293.983,155.152z"/>
</svg>
